<?xml version="1.0" standalone="no"?>
<!DOCTYPE svg PUBLIC "-//W3C//DTD SVG 20010904//EN"
 "http://www.w3.org/TR/2001/REC-SVG-20010904/DTD/svg10.dtd">
<svg version="1.0" xmlns="http://www.w3.org/2000/svg"
 width="512.000000pt" height="512.000000pt" viewBox="0 0 512.000000 512.000000"
 preserveAspectRatio="xMidYMid meet">
<metadata>
Created by potrace 1.14, written by Peter Selinger 2001-2017
</metadata>
<g transform="translate(0.000000,512.000000) scale(0.100000,-0.100000)"
fill="#000000" stroke="none">
<path d="M2459 5116 c-2 -2 -22 -6 -44 -10 -107 -15 -208 -49 -303 -102 -234
-128 -400 -346 -468 -614 -18 -71 -19 -124 -19 -1060 0 -542 4 -1007 9 -1035
31 -183 125 -363 261 -500 69 -70 212 -175 238 -175 7 0 17 -4 23 -9 9 -10
108 -51 134 -56 8 -2 34 -8 56 -14 54 -14 145 -25 214 -25 369 1 707 221 854
554 45 102 49 115 75 245 7 32 10 399 8 1035 -3 967 -3 986 -24 1055 -45 150
-91 244 -166 343 -137 178 -324 297 -552 352 -48 11 -287 25 -296 16z"/>
<path d="M46 4561 c-14 -8 -29 -25 -35 -38 -7 -15 -11 -299 -11 -873 0 -929
-2 -898 56 -920 56 -22 107 -4 133 47 15 29 16 1697 1 1740 -20 55 -90 77
-144 44z"/>
<path d="M4973 4568 c-54 -27 -53 -6 -53 -923 0 -923 -2 -893 56 -915 46 -18
81 -12 113 21 l31 30 0 859 c0 595 -3 866 -11 882 -20 45 -90 69 -136 46z"/>
<path d="M874 4283 c-12 -2 -32 -15 -45 -29 l-24 -26 -3 -706 c-2 -681 -1
-708 17 -738 37 -61 124 -62 161 -1 19 31 20 55 20 724 0 415 -4 702 -10 717
-15 40 -70 68 -116 59z"/>
<path d="M4199 4282 c-15 -2 -37 -14 -50 -28 l-24 -26 -3 -491 c-2 -346 1
-500 9 -519 11 -26 62 -58 93 -58 28 0 63 21 79 49 14 25 16 83 17 510 0 417
-2 487 -15 515 -17 35 -58 54 -106 48z"/>
<path d="M453 4170 c-55 -33 -54 -23 -51 -583 l3 -519 33 -29 c43 -39 90 -37
130 4 l27 28 3 513 c1 319 -1 523 -7 539 -20 53 -90 77 -138 47z"/>
<path d="M4580 4172 c-19 -9 -40 -28 -47 -42 -10 -19 -12 -142 -10 -543 l2
-519 33 -29 c35 -31 53 -35 99 -19 63 22 62 14 63 572 0 305 -4 516 -9 531
-20 51 -81 74 -131 49z"/>
<path d="M1260 3922 c-19 -9 -40 -28 -47 -42 -16 -32 -18 -512 -3 -557 18 -51
81 -76 133 -52 53 24 57 45 57 322 0 141 -4 267 -10 281 -19 50 -81 73 -130
48z"/>
<path d="M3783 3925 c-59 -25 -63 -46 -63 -323 0 -145 4 -261 10 -279 12 -32
56 -63 90 -63 34 0 78 31 90 63 13 38 13 517 0 551 -18 49 -76 72 -127 51z"/>
<path d="M4176 2923 c-55 -29 -67 -100 -28 -153 56 -74 183 -12 167 82 -10 61
-86 99 -139 71z"/>
<path d="M3816 2549 c-60 -17 -69 -37 -81 -184 -12 -158 -49 -293 -115 -426
-111 -222 -301 -418 -510 -527 -74 -38 -250 -106 -250 -96 0 2 -8 0 -18 -5
-11 -6 -41 -13 -68 -16 -27 -4 -74 -10 -105 -14 -175 -23 -428 21 -607 105
-65 31 -179 98 -192 113 -3 3 -23 19 -45 35 -67 49 -183 176 -240 261 -121
183 -182 356 -199 565 -11 129 -16 149 -43 170 -36 28 -94 26 -130 -4 -26 -23
-28 -30 -29 -103 -1 -74 16 -226 30 -271 4 -11 9 -31 11 -43 9 -47 49 -157 87
-239 59 -127 158 -269 261 -373 138 -140 216 -197 372 -275 91 -45 129 -60
275 -105 l45 -14 0 -249 0 -249 -51 -6 c-268 -33 -467 -258 -455 -516 1 -12
15 -35 32 -52 l30 -31 739 0 739 0 29 30 c37 37 41 58 26 149 -38 225 -208
384 -445 419 l-54 7 0 252 0 253 51 10 c104 22 289 102 392 171 24 16 45 29
48 29 3 0 41 30 84 66 306 253 496 630 503 995 2 101 0 119 -16 137 -26 28
-66 40 -101 31z"/>
</g>
</svg>
